<?xml version="1.0" encoding="utf-8"?>
<!-- Generator: Adobe Illustrator 22.1.0, SVG Export Plug-In . SVG Version: 6.00 Build 0)  -->
<svg version="1.1" id="图层_2_1_" xmlns="http://www.w3.org/2000/svg" xmlns:xlink="http://www.w3.org/1999/xlink" x="0px"
	 y="0px" viewBox="0 0 250 50" style="enable-background:new 0 0 250 50;" xml:space="preserve">
<style type="text/css">
	.st0{fill:#0084FF;}
	.st1{fill:#FFFFFF;}
</style>
<g>
	<g>
		<g>
			<polygon class="st0" points="32.8,32 30.2,33.6 20.3,27.8 20.3,33.9 30.2,39.5 37.9,35.1 			"/>
			<polygon class="st0" points="27.8,17.8 30.2,16.5 40.2,22.2 40.2,16.3 30.2,10.5 22.7,14.9 			"/>
		</g>
		<g>
			<polygon class="st0" points="20.3,16.2 25.4,19.2 25.4,25.1 20.3,22.1 			"/>
			<polygon class="st0" points="27.8,20.5 27.8,26.5 40.2,33.6 40.2,27.8 40.2,27.7 			"/>
		</g>
	</g>
</g>
<g>
	<path class="st1" d="M52.5,16.8v-1.9h21.6v1.9h-9.8v1h6.8c0.9,0,1.5,0.2,2,0.5c0.4,0.3,0.7,0.9,0.7,1.5v5.6h-2.2v-5.1
		c0-0.5-0.3-0.9-0.9-0.9h-6.4V25h-2.1v-5.6h-6.3c-0.5,0-0.8,0.4-0.8,1v4.9h-2.1v-5.5c0-0.5,0.2-1,0.5-1.5c0.4-0.4,0.9-0.5,1.5-0.5
		H62v-1C62,16.8,52.5,16.8,52.5,16.8z M52.6,34.7v-2.1h18c0.5,0,0.8,0,0.9-0.2s0.2-0.4,0.2-0.8v-0.4H52.8v-2h19v-0.3v-0.2
		c0-0.3-0.2-0.5-0.3-0.7C71.4,28,71.3,28,71.1,28s-0.4,0-0.8,0H52.6v-2.1h18.3c0.9,0,1.5,0.2,2,0.4c0.5,0.4,0.8,0.9,0.8,1.5v4.4
		c0,0.8-0.2,1.3-0.5,1.7c-0.3,0.4-1,0.5-2,0.5H52.6V34.7z M55.9,22.2v-1.7H61v1.7H55.9z M55.9,24.9v-1.6H61V25L55.9,24.9L55.9,24.9z
		 M65.5,22.2v-1.7h5.1v1.7H65.5z M65.5,24.9v-1.6h5.1V25L65.5,24.9L65.5,24.9z"/>
	<path class="st1" d="M76.4,17.5v-2.2H81v2.1L76.4,17.5L76.4,17.5z M76.4,25.4v-2.1H81v2.1H76.4z M76.4,34.5v-2.1H81v2.1H76.4z
		 M89.2,16.1v-1h2.1v1h4.1c0.8,0,1.5,0.3,1.9,0.7c0.4,0.4,0.7,0.8,0.7,1.5v5.6c0,1.5-0.8,2.1-2.4,2.1h-3.3l0.8,1.5h5v2.1h-3.9
		c0.7,1.3,1.3,2.2,2,2.7c0.4,0.3,1,0.4,2,0.4V35c-0.9,0-1.7-0.2-2.5-0.5c-0.8-0.4-1.5-0.9-2-1.5c-0.4-0.4-0.7-0.9-1-1.5l-2.7-5.3h-5
		v6.1c0,0.3,0,0.5,0.2,0.7c0.2,0.2,0.4,0.2,0.7,0.2H88v2.1h-2.7c-0.9,0-1.7-0.2-2.1-0.5c-0.4-0.3-0.7-1-0.7-2V18.3
		c0-1.5,0.8-2.2,2.4-2.2C84.7,16.1,89.2,16.1,89.2,16.1z M84.7,19.8h10.9v-1c0-0.4-0.3-0.7-0.8-0.7h-9.2c-0.3,0-0.5,0-0.7,0.2
		c-0.2,0.2-0.3,0.3-0.3,0.5L84.7,19.8z M84.7,23.7h10.2c0.5,0,0.8-0.3,0.8-0.7V22H84.7V23.7z"/>
	<path class="st1" d="M100.3,19.8v-2.2c0.5-0.2,0.8-0.3,0.9-0.5c0.3-0.4,0.4-1.2,0.5-2.2h2.2l-0.2,0.8h7.1v2.1h-3v2.1h-2.2v-2.1
		h-2.4c-0.4,0.8-0.8,1.2-1.2,1.5C102,19.5,101.2,19.7,100.3,19.8z M100.3,31.8v-1.9h4.4v-0.7h-1.7c-0.7,0-1.2-0.2-1.5-0.5
		c-0.3-0.3-0.5-0.9-0.5-1.5v-4.4c0-0.9,0.2-1.5,0.3-1.9c0.3-0.3,0.5-0.5,0.7-0.7c0.3-0.2,0.8-0.3,1.5-0.3h15.6
		c0.8,0,1.3,0.2,1.5,0.3c0.7,0.4,0.9,0.9,0.9,1.7v4.7c0,0.8-0.2,1.3-0.3,1.5c-0.4,0.5-1,0.9-2,0.9h-0.5v0.7h3.4v1.9h-3.4v2.9h-2.1
		v-2.9h-9.8c-0.3,0.8-0.8,1.5-1.5,1.9c-0.9,0.5-2.5,0.9-4.7,1v-2c1-0.2,1.9-0.2,2.4-0.3c0.4-0.2,0.8-0.3,1.2-0.5h-3.6v-0.2H100.3z
		 M119.1,26.6H103c0,0.2,0,0.2,0,0.2c0,0.3,0.2,0.5,0.3,0.7c0.2,0.2,0.5,0.2,1,0.2h13.4c0.4,0,0.7,0,0.8,0c0.2,0,0.3-0.2,0.3-0.2
		C119.1,27.1,119.1,26.8,119.1,26.6z M103,22.6h16.1c0-0.2,0-0.3-0.2-0.4c0-0.2-0.2-0.2-0.3-0.3c-0.1-0.1-0.4-0.2-0.9-0.2h-13.3
		c-0.7,0-1,0.2-1.2,0.3C103.2,22,103,22.4,103,22.6z M103,25h16.1v-0.8H103V25z M106.9,30h9.5v-0.8h-9.5
		C106.9,29.2,106.9,30,106.9,30z M111.2,19.8v-2.2c0.5-0.2,0.8-0.3,0.9-0.5c0.3-0.4,0.4-1.2,0.5-2.2h2.2l-0.2,0.8h7.1v2.1h-3.2v2.1
		h-2.1v-2.1h-2.4c-0.3,0.7-0.7,1.2-1.2,1.5C112.8,19.5,112.2,19.7,111.2,19.8z"/>
	<path class="st1" d="M124.2,34.7v-2.1h0.5v-3.6c0-1.5,0.8-2.1,2.4-2.1H143c0.8,0,1.5,0.3,1.9,0.7s0.5,0.8,0.5,1.5v3.6h0.5v2.1
		L124.2,34.7L124.2,34.7z M124.2,26.3v-2.1c0.5,0,0.9-0.3,1.2-0.5c0.3-0.3,0.4-0.7,0.4-1.3h-1.5v-2.1h1.5v-2.1
		c0-0.4,0.2-0.9,0.4-1.3c0.5-0.7,1.2-1,2.1-1h0.4v-0.9h2.1v0.8h11.3c0.9,0,1.5,0.3,2,0.7c0.4,0.5,0.7,1,0.7,1.9v1.9h0.8v2.1h-0.8
		v1.3c0,0.8-0.3,1.5-0.9,2.1c-0.5,0.5-1.3,0.8-2.1,0.8h-2.5v-2.1h2c0.4,0,0.8-0.2,1-0.3c0.3-0.3,0.4-0.5,0.4-0.9v-0.8h-6.6V25h-2.1
		v-2.7H128c0,1.3-0.4,2.2-1,2.9C126.4,25.9,125.4,26.3,124.2,26.3z M127.1,32.7h4.1v-3.6h-3.3c-0.5,0-0.9,0.3-0.9,0.8L127.1,32.7z
		 M128.1,20.1h6.1v-1.7h2.1v1.7h6.6v-1.2c0-0.4-0.2-0.7-0.4-0.8c-0.3-0.2-0.5-0.3-0.8-0.3h-12.4c-0.4,0-0.7,0.2-0.9,0.3
		c-0.3,0.2-0.4,0.4-0.4,0.7v1.3H128.1z M133.2,32.7h3.8v-3.6h-3.8V32.7z M139.1,32.7h3.9v-2.7c0-0.3,0-0.5-0.2-0.7
		c-0.2-0.2-0.3-0.2-0.7-0.2H139L139.1,32.7L139.1,32.7z"/>
</g>
</svg>
