<?xml version="1.0" encoding="utf-8"?>
<!-- Generator: Adobe Illustrator 22.1.0, SVG Export Plug-In . SVG Version: 6.00 Build 0)  -->
<svg version="1.1" id="图层_4" xmlns="http://www.w3.org/2000/svg" xmlns:xlink="http://www.w3.org/1999/xlink" x="0px" y="0px"
	 viewBox="0 0 250 50" style="enable-background:new 0 0 250 50;" xml:space="preserve">
<style type="text/css">
	.st0{fill:#0084FF;}
</style>
<g>
	<g>
		<g>
			<polygon class="st0" points="69,35.8 56.5,28.6 56.5,36.1 69,43.3 78.8,37.6 72.3,33.9 			"/>
			<polygon class="st0" points="59.4,12.2 66,16 69,14.2 81.7,21.5 81.7,14 69,6.7 			"/>
			<polygon class="st0" points="63,17.6 56.5,13.9 56.5,21.4 63,25.1 			"/>
			<polygon class="st0" points="66,26.8 81.7,35.9 81.7,28.5 81.7,28.4 66,19.3 			"/>
		</g>
		<path class="st0" d="M88.4,11.8h21v2.5h-9.2v1.6h10.4v7H108v-4.5h-7.9v6.5h-2.5v-6.5h-7.9v4.5h-2.5v-7h10.4v-1.6h-9.2V11.8z
			 M88.4,26h21v12.3h-21v-2.5h18.5v-2.4H89.7v-2.5h17.1v-2.4H88.4V26z M90.9,19.6h5.5v2.1h-5.5V19.6z M90.9,22.9h5.5V25h-5.5V22.9z
			 M101.3,19.6h5.5v2.1h-5.5V19.6z M101.3,22.9h5.5V25h-5.5V22.9z"/>
		<g>
			<polygon class="st0" points="115.5,11.8 117.9,17.8 120.9,17.8 118.4,11.8 			"/>
			<polygon class="st0" points="115.4,18.8 117.9,24.7 120.8,24.7 118.4,18.8 			"/>
			<polygon class="st0" points="115.4,38.3 118.4,38.3 120.8,25.8 117.9,25.8 			"/>
			<path class="st0" d="M138.8,28.6h-1.5h-1.5l-1.7,2.8c-0.4-0.5-0.6-1.1-0.8-1.7c-0.1-0.3-0.2-0.7-0.3-1.1h-3
				c0.5,2.3,1.4,4.2,2.6,5.8c1.5,1.9,3.5,3.3,6.1,4.1V35c-1.2-0.3-2.1-0.9-3-1.6L138.8,28.6z"/>
			<path class="st0" d="M125.6,35.3v-7.6H138V13.4h-6.4l-0.5-1.9H128l0.5,1.9h-5.8v25c1.6-0.1,3-0.1,4.1-0.3c1.5-0.2,3-0.6,4.3-1.1
				v-3.1c-0.9,0.4-1.7,0.7-2.6,0.9C127.7,35,126.7,35.2,125.6,35.3z M125.6,22.1h8.2v-3h-8.2v-2.7h9.4v8.3h-9.4V22.1L125.6,22.1z"/>
		</g>
		<path class="st0" d="M193.5,35.7v2.6h-23.3v-2.6h2.6v-5.3c0,0-0.1,0-0.1,0.1s0,0-0.1,0.1l-1.7-2.4c0.5-0.5,1-0.9,1.4-1.3
			s0.7-0.8,1-1.2c0.3-0.4,0.5-0.7,0.6-1.1c0.2-0.4,0.3-0.8,0.4-1.2h-3.5v-2.6h3.7V20v-6.1h5.1c0.1-0.4,0.3-0.8,0.4-1.3
			c0.1-0.4,0.3-0.8,0.3-1.1l2.6,0.4c-0.1,0.3-0.2,0.6-0.3,0.9s-0.2,0.7-0.3,1h7.5v6.9h3v2.6h-3V25c0,0.6-0.1,1.1-0.1,1.5
			c-0.1,0.4-0.3,0.7-0.5,1s-0.5,0.5-0.9,0.6s-0.8,0.2-1.4,0.3l-1.8,0.2l-0.8-2.5l1.2-0.1c0.6-0.1,1-0.2,1.2-0.3
			c0.3-0.1,0.4-0.5,0.4-1v-1.4h-5.9c0.5,0.4,0.9,0.8,1.4,1.3s0.9,0.9,1.3,1.3l-1.4,2.1c-0.2-0.2-0.4-0.4-0.7-0.7
			c-0.3-0.3-0.6-0.5-0.9-0.9c-0.3-0.3-0.6-0.6-1-0.9c-0.3-0.3-0.7-0.6-1-0.9l0.8-1.2h-3.1c-0.1,0.6-0.2,1.1-0.4,1.6s-0.4,1-0.6,1.4
			c-0.3,0.5-0.5,0.9-0.9,1.4c-0.3,0.5-0.7,0.9-1.1,1.4h16.9v6.6L193.5,35.7L193.5,35.7z M175.3,35.7h2.8v-4.1h-2.8V35.7z
			 M177.1,20.7h5.6c-0.4-0.4-0.9-0.9-1.5-1.4s-1.1-1-1.7-1.5l1-1.4H177L177.1,20.7L177.1,20.7z M183.1,31.6h-2.6v4.1h2.6V31.6z
			 M187.4,16.5h-5.9c0.3,0.2,0.5,0.4,0.8,0.6s0.5,0.5,0.8,0.7c0.3,0.3,0.5,0.5,0.7,0.7c0.2,0.3,0.5,0.5,0.6,0.7l-1,1.5h3.9
			L187.4,16.5L187.4,16.5z M188.3,31.6h-2.8v4.1h2.8V31.6z"/>
		<path class="st0" d="M148.3,11.6c0,0.2,0,0.4-0.1,0.5c-0.1,0.2-0.1,0.4-0.1,0.5h5.9v2.7h-2.8l0.5,3.1h8.2l-0.6-3.1h-1.2
			c-0.4,0.9-0.7,1.6-1.1,2.1h-3.3c0.4-0.5,0.9-1.3,1.4-2.5c0.5-1.2,0.8-2.3,1-3.2h3.1l-0.2,1h7.1v2.7h-3.8l0.6,3.1h2.5v13.2H162v1.5
			h4.1v2.7H162v2.6h-3v-2.6h-9.7c-0.2,0.6-0.3,1-0.5,1.3c-0.1,0.3-0.3,0.8-0.6,1.3h-3.3c0.2-0.3,0.5-0.7,0.7-1.2s0.5-0.9,0.6-1.4
			H143v-2.7h3.9l0.2-1.5h-3.5V18.4h5.3l-0.5-3.1h-1.2c-0.4,1-0.7,1.7-1.1,2.1h-3.3c0.4-0.5,0.8-1.3,1.4-2.6c0.5-1.3,0.8-2.3,1-3.2
			H148.3L148.3,11.6z M146.6,22.1h15.9v-1.7h-15.9V22.1z M146.6,25.8h15.9v-1.6h-15.9V25.8z M146.6,29.5h15.9v-1.6h-15.9V29.5z
			 M149.9,33.1h9.1v-1.5h-9L149.9,33.1z"/>
	</g>
</g>
</svg>
